<svg width="64" height="64" viewBox="0 0 64 64" fill="none" xmlns="http://www.w3.org/2000/svg">
<path d="M32 64C49.6731 64 64 49.6731 64 32C64 14.3269 49.6731 0 32 0C14.3269 0 0 14.3269 0 32C0 49.6731 14.3269 64 32 64Z" fill="#33CCFF"/>
<path d="M9 26.0078H12.8083V38H9V26.0078ZM30.8005 26.0078H24.2565V29.8238H26.9845V38H30.8005V29.8161H33.5285V26H30.8005V26.0078ZM41.1528 26.0078H34.6088V29.8238H37.3368V38H41.1528V29.8161H43.8808V26H41.1528V26.0078ZM51.5129 26.0078H44.9689V29.8238H47.6969V38H51.5129V29.8161H54.2332V26H51.5129V26.0078ZM23.1684 29.8161V26H14.4482V37.9922H18.2642V34.7202H21.5363V30.9119H18.2642V29.8238H23.1684V29.8161Z" fill="white"/>
</svg>
