<svg width="64" height="64" viewBox="0 0 64 64" fill="none" xmlns="http://www.w3.org/2000/svg">
<path d="M64 32C64 49.6738 49.6727 64 32 64C26.4589 64 21.2467 62.5923 16.7021 60.1137C6.75139 54.6874 0 44.1324 0 32C0 14.3271 14.3269 0 31.9998 0C49.6727 0 64 14.3271 64 32Z" fill="#20B276"/>
<path d="M44.7718 41.1018C41.3857 44.5913 37.2764 46.3373 32.4449 46.3373C29.4961 46.3373 26.7563 45.8382 24.1879 44.3882L24.157 62.9696L23.9136 62.9039L23.763 62.8651L23.5852 62.7688L23.5014 62.6168L23.4242 62.4457L23.5098 62.3383L15.0366 52.2353L15.0391 28.353C15.0391 23.3767 16.7319 19.1504 20.1182 15.6732C23.5038 12.1959 27.6128 10.4575 32.4449 10.4575C37.2764 10.4575 41.3855 12.202 44.7718 15.6923C48.1575 19.1821 49.8509 23.4173 49.8509 28.3973C49.8509 33.3778 48.1575 37.6123 44.7718 41.1018ZM38.3085 22.3485C36.7008 20.6901 34.7464 19.8612 32.4449 19.8612C30.1429 19.8612 28.1884 20.6901 26.5812 22.3485C24.9735 24.0069 24.1696 26.0228 24.1696 28.3978C24.1696 30.772 24.9733 32.7879 26.5812 34.4463C28.1884 36.105 30.1429 36.9343 32.4449 36.9343C34.7464 36.9343 36.7008 36.105 38.3085 34.4463C39.916 32.7879 40.7199 30.772 40.7199 28.3978C40.7199 26.0228 39.916 24.0067 38.3085 22.3485Z" fill="#147F52"/>
<path d="M44.106 40.4422C40.7199 43.9322 36.6111 45.6777 31.7793 45.6777C28.8305 45.6777 26.0725 44.9527 23.5044 43.5028L23.5016 62.8599C23.5016 62.8599 22.8766 62.6878 22.0631 62.4251C21.8625 62.3604 21.6599 62.2909 21.4477 62.2161C21.3468 62.1802 21.2976 62.1591 21.1937 62.1294C20.9275 62.0527 20.5902 61.9046 20.3302 61.8034C19.4566 61.4631 18.7487 61.1391 18.7317 61.131C18.7146 61.1228 16.214 59.9303 15.932 59.7539C15.6795 59.5962 15.4547 59.4725 15.262 59.334C15.2004 59.2904 15.1539 59.2588 15.0955 59.2185C14.6375 58.9036 14.3815 58.7229 14.3815 58.7229L14.3738 27.6938C14.3738 22.7173 16.0666 18.491 19.4529 15.0141C22.8387 11.5364 26.9476 9.79834 31.7796 9.79834C36.6113 9.79834 40.7202 11.5429 44.1062 15.0331C47.4921 18.5229 49.1857 22.7581 49.1857 27.7379C49.1853 32.7179 47.4918 36.9524 44.106 40.4422ZM37.643 21.6889C36.035 20.0304 34.0808 19.2016 31.7791 19.2016C29.4771 19.2016 27.5226 20.0304 25.9154 21.6889C24.3077 23.3473 23.5041 25.3632 23.5041 27.7379C23.5041 30.1124 24.3077 32.1282 25.9154 33.7864C27.5226 35.4456 29.4771 36.2747 31.7791 36.2747C34.0806 36.2747 36.035 35.4456 37.643 33.7864C39.2502 32.1282 40.0543 30.1124 40.0543 27.7379C40.0543 25.3632 39.2502 23.3473 37.643 21.6889Z" fill="white"/>
</svg>
