<svg width="64" height="64" viewBox="0 0 64 64" fill="none" xmlns="http://www.w3.org/2000/svg">
<g clip-path="url(#clip0_249_1423)">
<path d="M37.2916 35.825L48.5265 27.0241L50.2805 11.7023L37.2916 4.55176L32.0188 11.798C34.7476 13.1681 36.6856 15.9033 36.9186 19.0943C37.211 23.1081 34.7771 26.8451 30.9976 28.1805C25.9755 29.9576 22.6003 34.7518 22.6003 40.1113V42.4138C22.6003 45.4129 25.0316 47.8441 28.0293 47.8441H35.9707L37.2916 35.825Z" fill="#FE9738"/>
<path d="M21.6276 25.2028H13.6866C10.6878 25.2028 8.25684 22.7718 8.25684 19.773C8.25684 18.8538 8.32096 17.9283 8.44734 17.0223C9.86996 6.82664 19.0517 -0.632989 29.3505 0.043011H37.2928L31.6426 5.74814" fill="#FE9738"/>
<path d="M35.971 53.0952H28.0298C25.0311 53.0952 22.6001 55.5262 22.6001 58.525V58.57C22.6001 61.5687 25.0311 63.9997 28.0298 63.9997H35.0052" fill="#FE9738"/>
<path d="M35.9712 47.8436C32.9725 47.8436 30.5415 45.4126 30.5415 42.4139V40.1108C30.5415 34.7513 33.9164 29.9573 38.9396 28.1813C42.718 26.8453 45.1527 23.1086 44.8601 19.0946C44.5396 14.6993 40.981 11.1675 36.5824 10.8795C31.9297 10.5721 27.7846 13.9323 27.144 18.523C27.0867 18.9334 27.0577 19.354 27.0577 19.7731C27.0577 22.7719 24.6267 25.2029 21.628 25.2029C18.6292 25.2029 16.1982 22.7719 16.1982 19.7731C16.1982 18.8539 16.2624 17.9284 16.3887 17.0224C17.8114 6.82663 26.993 -0.632989 37.2919 0.043011C47.0689 0.683261 54.9789 8.53426 55.6911 18.305C56.3384 27.1855 50.9386 35.4569 42.5597 38.4196C41.8667 38.6646 41.4011 39.3443 41.4011 40.1108V42.4139C41.4011 45.4126 38.9701 47.8436 35.9712 47.8436Z" fill="#FFD15B"/>
<path d="M35.9713 63.9997C32.9725 63.9997 30.5415 61.5687 30.5415 58.57V58.525C30.5415 55.5262 32.9725 53.0952 35.9713 53.0952C38.97 53.0952 41.401 55.5262 41.401 58.525V58.57C41.4011 61.5687 38.9701 63.9997 35.9713 63.9997Z" fill="#FFD15B"/>
<path d="M21.1884 17.023C21.0609 17.9288 20.9985 18.8536 20.9985 19.7731C20.9985 21.9102 22.2325 23.7598 24.0279 24.6441C23.3037 25.0021 22.4901 25.2028 21.6276 25.2028C18.6307 25.2028 16.198 22.7728 16.198 19.7732C16.198 18.8538 16.2631 17.929 16.3905 17.0231C17.8117 6.82545 26.995 -0.632922 37.2929 0.0424534C37.6618 0.0668284 38.0279 0.102078 38.3912 0.148203C29.6719 1.2222 22.4386 8.06758 21.1884 17.023Z" fill="#FFC344"/>
<path d="M43.7396 28.1804C38.7167 29.9568 35.3402 34.7519 35.3402 40.111V42.4137C35.3402 44.5508 36.577 46.4005 38.3724 47.2847C37.6482 47.6427 36.8346 47.8434 35.9721 47.8434C32.9725 47.8434 30.5425 45.4133 30.5425 42.4138V40.111C30.5425 34.7519 33.9164 29.9569 38.9419 28.1804C42.7199 26.8433 45.1526 23.1088 44.8597 19.0948C44.5859 15.3195 41.9225 12.1815 38.3886 11.1917C39.3406 10.9232 40.3495 10.8119 41.3827 10.8798C45.7819 11.1673 49.3401 14.6984 49.6601 19.0948C49.953 23.1088 47.5175 26.8434 43.7396 28.1804Z" fill="#FFC344"/>
<path d="M38.3724 63.4409C37.6482 63.7989 36.8346 63.9996 35.9721 63.9996C32.9725 63.9996 30.5425 61.5696 30.5425 58.57V58.5239C30.5425 55.527 32.9725 53.0942 35.9721 53.0942C36.8346 53.0942 37.6482 53.295 38.3724 53.653C36.577 54.5399 35.3402 56.3895 35.3402 58.524V58.5701C35.3402 60.7071 36.577 62.5567 38.3724 63.4409Z" fill="#FFC344"/>
</g>
<defs>
<clipPath id="clip0_249_1423">
<rect width="64" height="64" fill="white"/>
</clipPath>
</defs>
</svg>
