<svg width="64" height="64" viewBox="0 0 64 64" fill="none" xmlns="http://www.w3.org/2000/svg">
<path d="M31.965 55.5761C18.9637 55.5761 8.424 45.0363 8.424 32.0353C8.424 19.0341 18.9637 8.49456 31.965 8.49456C44.966 8.49456 55.5055 19.0341 55.5055 32.0353C55.5055 45.0363 44.966 55.5761 31.965 55.5761ZM31.965 0.0703125C14.3113 0.0703125 0 14.3818 0 32.0353C0 49.6891 14.3113 64.0001 31.965 64.0001C49.6185 64.0001 63.9297 49.6891 63.9297 32.0353C63.9297 14.3818 49.6185 0.0703125 31.9648 0.0703125H31.965Z" fill="#CF272D"/>
<path d="M33.2789 24.0745C33.2789 20.404 36.2547 17.4282 39.9254 17.4282C43.5962 17.4282 46.5717 20.404 46.5717 24.0745C46.5717 27.7455 43.5962 30.721 39.9254 30.721C36.2547 30.721 33.2789 27.7455 33.2789 24.0745ZM33.2789 39.996C33.2789 36.3255 36.2547 33.3495 39.9254 33.3495C43.5962 33.3495 46.5717 36.3255 46.5717 39.996C46.5717 43.6667 43.5962 46.6425 39.9254 46.6425C36.2547 46.6425 33.2789 43.6667 33.2789 39.996ZM17.3577 39.996C17.3577 36.3255 20.3337 33.3495 24.0042 33.3495C27.6749 33.3495 30.6507 36.3255 30.6507 39.996C30.6507 43.6667 27.6749 46.6425 24.0042 46.6425C20.3337 46.6425 17.3577 43.6667 17.3577 39.996ZM17.3577 24.0747C17.3577 20.404 20.3337 17.4285 24.0042 17.4285C27.6749 17.4285 30.6507 20.404 30.6507 24.0747C30.6507 27.7457 27.6749 30.7212 24.0042 30.7212C20.3337 30.7212 17.3577 27.7457 17.3577 24.0747Z" fill="#CF272D"/>
</svg>
